<svg xmlns="http://www.w3.org/2000/svg" width="36" height="6" viewBox="0 0 36 6" fill="none"><script xmlns=""/>
<path d="M2.96037 1.04895C2.71691 0.69153 2.36208 0.51282 1.89588 0.51282C1.75084 0.51282 1.60839 0.53354 1.46853 0.57498C1.32867 0.61124 1.20176 0.67081 1.0878 0.75369C0.97902 0.83139 0.89096 0.93499 0.82362 1.06449C0.75628 1.18881 0.72261 1.33644 0.72261 1.50738C0.72261 1.75602 0.79254 1.95027 0.9324 2.09013C1.07226 2.22481 1.24579 2.33618 1.45299 2.42424C1.66019 2.5123 1.88552 2.59259 2.12898 2.66511C2.37762 2.73245 2.60554 2.82569 2.81274 2.94483C3.01994 3.05879 3.19347 3.2116 3.33333 3.40326C3.47319 3.59492 3.54312 3.85651 3.54312 4.18803C3.54312 4.43667 3.48873 4.662 3.37995 4.86402C3.27635 5.06086 3.13649 5.22662 2.96037 5.3613C2.78943 5.49598 2.59518 5.59958 2.37762 5.6721C2.16524 5.74462 1.95027 5.78088 1.73271 5.78088C1.39601 5.78088 1.07485 5.71872 0.76923 5.5944C0.46879 5.4649 0.21238 5.25511 0 4.96503L0.50505 4.59984C0.62419 4.80186 0.78995 4.96503 1.00233 5.08935C1.21471 5.20849 1.46594 5.26806 1.75602 5.26806C1.89588 5.26806 2.03574 5.24734 2.1756 5.2059C2.31546 5.15928 2.43978 5.09453 2.54856 5.01165C2.66252 4.92359 2.75576 4.8174 2.82828 4.69308C2.9008 4.56876 2.93706 4.42631 2.93706 4.26573C2.93706 4.07407 2.89562 3.91608 2.81274 3.79176C2.73504 3.66226 2.62885 3.55607 2.49417 3.47319C2.36467 3.38513 2.21445 3.31261 2.04351 3.25563C1.87775 3.19865 1.70422 3.14167 1.52292 3.08469C1.3468 3.02771 1.17327 2.96296 1.00233 2.89044C0.83657 2.81792 0.68635 2.72727 0.55167 2.61849C0.42217 2.50453 0.31598 2.36467 0.2331 2.19891C0.1554 2.02797 0.11655 1.81559 0.11655 1.56177C0.11655 1.29759 0.16576 1.06708 0.26418 0.87024C0.36778 0.6734 0.50246 0.51023 0.66822 0.38073C0.83916 0.25123 1.03082 0.1554 1.2432 0.0932398C1.45558 0.03108 1.67314 0 1.89588 0C2.20668 0 2.48899 0.04921 2.74281 0.14763C2.99663 0.24605 3.23232 0.41958 3.44988 0.66822L2.96037 1.04895Z" fill="#0B0B0B"/>
<path d="M6.64301 0.13986H7.20246V2.52525H10.2017V0.13986H10.7611V5.64102H10.2017V3.03807H7.20246V5.64102H6.64301V0.13986Z" fill="#0B0B0B"/>
<path d="M18.9738 2.89044C18.9738 2.57446 18.922 2.27402 18.8184 1.98912C18.7148 1.69904 18.5646 1.44522 18.3677 1.22766C18.1761 1.0101 17.9404 0.83657 17.6607 0.70707C17.3809 0.57757 17.065 0.51282 16.7127 0.51282C16.3605 0.51282 16.0445 0.57757 15.7648 0.70707C15.4851 0.83657 15.2468 1.0101 15.0499 1.22766C14.8583 1.44522 14.7107 1.69904 14.6071 1.98912C14.5035 2.27402 14.4517 2.57446 14.4517 2.89044C14.4517 3.20642 14.5035 3.50945 14.6071 3.79953C14.7107 4.08443 14.8583 4.33566 15.0499 4.55322C15.2468 4.77078 15.4851 4.94431 15.7648 5.07381C16.0445 5.20331 16.3605 5.26806 16.7127 5.26806C17.065 5.26806 17.3809 5.20331 17.6607 5.07381C17.9404 4.94431 18.1761 4.77078 18.3677 4.55322C18.5646 4.33566 18.7148 4.08443 18.8184 3.79953C18.922 3.50945 18.9738 3.20642 18.9738 2.89044ZM19.5799 2.89044C19.5799 3.31002 19.5073 3.69593 19.3623 4.04817C19.2173 4.40041 19.0152 4.70603 18.7562 4.96503C18.5024 5.21885 18.1994 5.41828 17.8471 5.56332C17.5001 5.70836 17.1219 5.78088 16.7127 5.78088C16.3035 5.78088 15.9228 5.70836 15.5705 5.56332C15.2235 5.41828 14.9204 5.21885 14.6614 4.96503C14.4076 4.70603 14.2082 4.40041 14.0632 4.04817C13.9181 3.69593 13.8456 3.31002 13.8456 2.89044C13.8456 2.47086 13.9181 2.08495 14.0632 1.73271C14.2082 1.38047 14.4076 1.07744 14.6614 0.82362C14.9204 0.56462 15.2235 0.3626 15.5705 0.21756C15.9228 0.0725201 16.3035 0 16.7127 0C17.1219 0 17.5001 0.0725201 17.8471 0.21756C18.1994 0.3626 18.5024 0.56462 18.7562 0.82362C19.0152 1.07744 19.2173 1.38047 19.3623 1.73271C19.5073 2.08495 19.5799 2.47086 19.5799 2.89044Z" fill="#0B0B0B"/>
<path d="M23.1484 5.1282H24.2362C24.6558 5.1282 25.0184 5.06604 25.324 4.94172C25.6348 4.81222 25.8912 4.64387 26.0933 4.43667C26.3005 4.22429 26.4533 3.98601 26.5517 3.72183C26.6501 3.45247 26.6993 3.17534 26.6993 2.89044C26.6993 2.60554 26.6501 2.331 26.5517 2.06682C26.4533 1.79746 26.3005 1.55918 26.0933 1.35198C25.8912 1.1396 25.6348 0.97125 25.324 0.84693C25.0184 0.71743 24.6558 0.65268 24.2362 0.65268H23.1484V5.1282ZM22.589 0.13986H24.4149C24.7568 0.13986 25.0987 0.19684 25.4406 0.3108C25.7876 0.42476 26.0984 0.59829 26.373 0.83139C26.6527 1.05931 26.878 1.3468 27.049 1.69386C27.2199 2.03574 27.3054 2.4346 27.3054 2.89044C27.3054 3.35146 27.2199 3.75291 27.049 4.09479C26.878 4.43667 26.6527 4.72416 26.373 4.95726C26.0984 5.18518 25.7876 5.35612 25.4406 5.47008C25.0987 5.58404 24.7568 5.64102 24.4149 5.64102H22.589V0.13986Z" fill="#0B0B0B"/>
<path d="M35.1492 2.89044C35.1492 2.57446 35.0974 2.27402 34.9938 1.98912C34.8902 1.69904 34.74 1.44522 34.5432 1.22766C34.3515 1.0101 34.1158 0.83657 33.8361 0.70707C33.5564 0.57757 33.2404 0.51282 32.8882 0.51282C32.5359 0.51282 32.2199 0.57757 31.9402 0.70707C31.6605 0.83657 31.4222 1.0101 31.2254 1.22766C31.0337 1.44522 30.8861 1.69904 30.7825 1.98912C30.6789 2.27402 30.6271 2.57446 30.6271 2.89044C30.6271 3.20642 30.6789 3.50945 30.7825 3.79953C30.8861 4.08443 31.0337 4.33566 31.2254 4.55322C31.4222 4.77078 31.6605 4.94431 31.9402 5.07381C32.2199 5.20331 32.5359 5.26806 32.8882 5.26806C33.2404 5.26806 33.5564 5.20331 33.8361 5.07381C34.1158 4.94431 34.3515 4.77078 34.5432 4.55322C34.74 4.33566 34.8902 4.08443 34.9938 3.79953C35.0974 3.50945 35.1492 3.20642 35.1492 2.89044ZM35.7553 2.89044C35.7553 3.31002 35.6828 3.69593 35.5377 4.04817C35.3927 4.40041 35.1907 4.70603 34.9317 4.96503C34.6779 5.21885 34.3748 5.41828 34.0226 5.56332C33.6755 5.70836 33.2974 5.78088 32.8882 5.78088C32.4789 5.78088 32.0982 5.70836 31.746 5.56332C31.3989 5.41828 31.0959 5.21885 30.8369 4.96503C30.5831 4.70603 30.3836 4.40041 30.2386 4.04817C30.0935 3.69593 30.021 3.31002 30.021 2.89044C30.021 2.47086 30.0935 2.08495 30.2386 1.73271C30.3836 1.38047 30.5831 1.07744 30.8369 0.82362C31.0959 0.56462 31.3989 0.3626 31.746 0.21756C32.0982 0.0725201 32.4789 0 32.8882 0C33.2974 0 33.6755 0.0725201 34.0226 0.21756C34.3748 0.3626 34.6779 0.56462 34.9317 0.82362C35.1907 1.07744 35.3927 1.38047 35.5377 1.73271C35.6828 2.08495 35.7553 2.47086 35.7553 2.89044Z" fill="#0B0B0B"/>
<script xmlns=""/></svg>