<svg width="61" height="51" viewBox="0 0 61 51" fill="none" xmlns="http://www.w3.org/2000/svg">
<path d="M30.4246 50.1126C22.2399 50.1126 14.0496 50.0959 5.86481 50.1237C3.337 50.1292 1.22122 48.4955 0.502962 46.3337C-0.577201 43.0773 1.53858 39.6152 4.93497 39.1039C5.23564 39.0595 5.54187 39.0428 5.8481 39.0428C22.2399 39.0373 38.6316 39.0373 55.0234 39.0428C57.9354 39.0428 60.2961 41.1545 60.6191 44.022C60.942 46.9006 58.8151 49.6569 55.9532 50.0514C55.608 50.1015 55.2517 50.1126 54.9009 50.1126C46.744 50.1126 38.5871 50.1126 30.4246 50.1126ZM30.4357 47.5396C38.5759 47.5396 46.7162 47.5396 54.8564 47.5396C54.9955 47.5396 55.1347 47.5396 55.2739 47.5341C57.0055 47.4785 58.3641 45.7614 58.0189 44.072C57.7182 42.5771 56.5323 41.6102 54.9955 41.6102C38.6205 41.6102 22.2454 41.6102 5.87037 41.6102C5.80356 41.6102 5.74231 41.6102 5.6755 41.6102C3.81583 41.6658 2.45728 43.4051 2.85816 45.2112C3.16996 46.6116 4.34478 47.5341 5.81469 47.5341C14.0273 47.5396 22.2343 47.5396 30.4357 47.5396Z" fill="white"/>
<path d="M30.4578 13.6909C38.598 13.6909 46.7382 13.6965 54.8784 13.6853C56.6657 13.6853 58.1746 14.2855 59.316 15.6526C60.6634 17.2641 61.0142 19.1147 60.3071 21.0875C59.6 23.0602 58.1579 24.255 56.0922 24.6718C55.7303 24.7441 55.3573 24.7718 54.9898 24.7774C38.6147 24.783 22.2397 24.783 5.8646 24.783C3.11965 24.783 0.909212 23.0047 0.319019 20.3261C-0.343556 17.3197 1.84461 14.1744 4.89579 13.7687C5.27998 13.7187 5.66973 13.702 6.05948 13.702C14.1941 13.6909 22.3288 13.6909 30.4578 13.6909ZM30.43 16.2694C22.3176 16.2694 14.2052 16.2694 6.09288 16.2694C5.94255 16.2694 5.79779 16.2694 5.64745 16.275C3.72654 16.3305 2.36799 18.2144 2.91364 20.0594C3.30339 21.382 4.45037 22.2044 5.91471 22.2044C22.2619 22.2044 38.6092 22.2044 54.9564 22.2044C55.0288 22.2044 55.1067 22.2044 55.1791 22.2044C57.4563 22.1322 58.826 19.6482 57.6456 17.7143C57.0387 16.714 56.1145 16.2694 54.9397 16.275C46.7716 16.275 38.598 16.2694 30.43 16.2694Z" fill="white"/>
<path d="M0.502773 9.39528C0.686512 9.39528 0.831276 9.39528 0.97604 9.39528C9.6953 9.39528 18.409 9.39528 27.1283 9.39528C27.2675 9.39528 27.4066 9.40084 27.5458 9.38416C27.9913 9.33971 28.2975 8.98405 28.2864 8.53393C28.2752 8.11158 27.9467 7.75593 27.518 7.72814C27.3955 7.71703 27.2786 7.72258 27.1561 7.72258C19.439 7.72258 11.7276 7.72258 4.01052 7.72258C2.25108 7.72258 0.886955 6.60005 0.541748 4.87734C0.179838 3.03793 1.60521 1.10961 3.47044 0.926222C3.7377 0.898436 4.00495 0.887321 4.27221 0.887321C12.9915 0.887321 21.7052 0.887321 30.4244 0.887321C30.5581 0.887321 30.6973 0.898437 30.8476 0.903994C30.8476 1.75979 30.8476 2.5878 30.8476 3.46027C30.7028 3.46027 30.5692 3.46027 30.43 3.46027C21.6773 3.46027 12.9247 3.46027 4.16642 3.46027C4.02723 3.46027 3.88803 3.46027 3.7544 3.48806C3.31454 3.57141 3.05842 3.91595 3.08069 4.36608C3.10296 4.77731 3.4259 5.10518 3.84905 5.13852C3.96041 5.14964 4.07177 5.14408 4.18313 5.14408C11.889 5.14408 19.5949 5.14408 27.3009 5.14408C29.1605 5.14408 30.5191 6.28329 30.8309 8.10603C31.1427 9.91209 29.6561 11.8126 27.8187 11.946C27.5625 11.9627 27.3009 11.9738 27.0392 11.9738C18.3867 11.9738 9.73428 11.9738 1.08183 11.9738C1.00945 11.9738 0.931498 11.9738 0.859116 11.9738C0.491637 11.9738 0.491637 11.9738 0.491637 11.6126C0.491637 10.9846 0.491637 10.3511 0.491637 9.72315C0.502773 9.63424 0.502773 9.53421 0.502773 9.39528Z" fill="white"/>
<path d="M58.0635 5.12187C58.0635 4.31609 58.0635 3.5492 58.0635 2.78232C58.0635 2.23772 58.0635 1.68756 58.0635 1.14296C58.0635 1.02071 58.0523 0.892892 58.2361 0.892892C59.0211 0.892892 59.8062 0.892892 60.6191 0.892892C60.6191 4.58838 60.6191 8.25609 60.6191 11.9405C60.5857 11.9516 60.5412 11.9738 60.5022 11.9738C59.7617 11.9794 59.0211 11.9738 58.275 11.9794C58.0412 11.9794 58.0635 11.8349 58.0635 11.6793C58.0635 10.4845 58.0635 9.28972 58.0635 8.10049C58.0635 7.98935 58.0635 7.87821 58.0635 7.73372C57.9521 7.72816 57.8519 7.71149 57.7572 7.71149C50.3186 7.71149 42.8855 7.71149 35.4468 7.70594C35.1851 7.70594 35.1183 7.78373 35.1239 8.03381C35.135 9.23415 35.1183 10.44 35.135 11.6404C35.1406 11.9127 35.0459 11.9849 34.7843 11.9794C34.1384 11.9627 33.4869 11.9683 32.8355 11.9794C32.6295 11.9794 32.546 11.9294 32.546 11.7015C32.5516 8.18385 32.5516 4.66618 32.546 1.14852C32.546 0.942906 32.6128 0.876221 32.8188 0.876221C33.4981 0.887335 34.1718 0.887335 34.8511 0.876221C35.0794 0.870664 35.135 0.959577 35.1295 1.17075C35.1239 2.3822 35.135 3.59366 35.1239 4.80511C35.1239 5.05518 35.1851 5.13854 35.4468 5.13854C42.8855 5.13298 50.3186 5.13298 57.7572 5.13298C57.8463 5.13854 57.9354 5.13298 58.0635 5.12187Z" fill="white"/>
<path d="M56.4987 9.39537C56.4987 10.2678 56.4987 11.1014 56.4987 11.9572C56.3818 11.9627 56.276 11.9794 56.1702 11.9794C49.795 11.9794 43.4143 11.9794 37.0391 11.985C36.7662 11.985 36.6938 11.8961 36.6994 11.6349C36.7161 10.9903 36.7105 10.3401 36.6994 9.68989C36.6938 9.46205 36.7662 9.38425 37.0001 9.38981C37.9912 9.40092 38.9822 9.39537 39.9733 9.39537C45.3296 9.39537 50.6915 9.39537 56.0477 9.39537C56.1925 9.39537 56.3373 9.39537 56.4987 9.39537Z" fill="white"/>
<path d="M56.5321 3.46596C56.3874 3.46596 56.276 3.46596 56.1702 3.46596C49.8006 3.46596 43.431 3.46596 37.0613 3.46596C36.705 3.46596 36.705 3.46596 36.6994 3.09919C36.6994 2.47123 36.7106 1.83772 36.6939 1.20977C36.6883 0.94858 36.7774 0.881893 37.0279 0.881893C39.6058 0.88745 42.1838 0.887451 44.7617 0.887451C48.5534 0.887451 52.3451 0.887451 56.1368 0.887451C56.5321 0.887451 56.5321 0.887451 56.5321 1.27645C56.5321 1.98776 56.5321 2.70463 56.5321 3.46596Z" fill="white"/>
<path d="M0.235497 37.4422C0.235497 33.73 0.235497 30.0623 0.235497 26.3668C0.374693 26.3668 0.497185 26.3668 0.61411 26.3668C18.743 26.3668 36.872 26.3668 55.0009 26.3668C57.9352 26.3668 60.2904 28.4063 60.6077 31.3182C60.9418 34.3413 58.8427 36.792 56.2203 37.3255C55.825 37.4033 55.4129 37.4422 55.0065 37.4422C36.8497 37.4478 18.6929 37.4478 0.53616 37.4478C0.447075 37.4422 0.352421 37.4422 0.235497 37.4422ZM29.1883 28.9398C20.5582 28.9398 11.9224 28.9398 3.29225 28.9398C3.20873 28.9398 3.12521 28.9509 3.04169 28.9398C2.84125 28.9175 2.79114 29.012 2.79114 29.1954C2.79671 31.0015 2.79671 32.8075 2.79114 34.6081C2.79114 34.8192 2.86909 34.8915 3.06953 34.8637C3.13078 34.8581 3.19759 34.8637 3.26441 34.8637C20.4468 34.8637 37.6292 34.8637 54.806 34.8637C54.9564 34.8637 55.1011 34.8637 55.2515 34.8637C56.9886 34.8192 58.3695 33.0965 58.0243 31.3905C57.7292 29.9011 56.5543 28.9398 55.0288 28.9398C46.4153 28.9398 37.8018 28.9398 29.1883 28.9398Z" fill="white"/>
<path d="M4.38352 33.1686C4.38352 32.9852 4.38352 32.8408 4.38352 32.6963C4.38352 32.085 4.38909 31.4737 4.37796 30.8624C4.37239 30.6568 4.4392 30.5679 4.65078 30.5957C4.71203 30.6012 4.77884 30.5957 4.84566 30.5957C21.5158 30.5957 38.1915 30.5957 54.8617 30.5957C55.0343 30.5957 55.218 30.6012 55.3851 30.6401C56.0254 30.7791 56.4652 31.3848 56.3928 32.0072C56.3205 32.6741 55.786 33.1575 55.1178 33.1686C55.0343 33.1686 54.9508 33.1686 54.8673 33.1686C38.186 33.1686 21.5047 33.1686 4.82338 33.1686C4.69532 33.1686 4.56726 33.1686 4.38352 33.1686Z" fill="white"/>
<path d="M30.4635 45.8502C22.34 45.8502 14.2165 45.8502 6.093 45.8502C5.90926 45.8502 5.71995 45.8502 5.53621 45.8335C4.89591 45.778 4.40037 45.2445 4.38367 44.5888C4.36696 43.9719 4.82353 43.4107 5.43599 43.3051C5.59189 43.2773 5.74779 43.2718 5.90369 43.2718C22.2732 43.2718 38.6371 43.2718 55.0066 43.2718C55.2349 43.2718 55.4743 43.294 55.6914 43.3662C56.2816 43.5607 56.599 44.1331 56.5155 44.7722C56.4431 45.3334 55.9531 45.7891 55.3629 45.8335C55.1903 45.8502 55.0122 45.8502 54.834 45.8502C46.7105 45.8502 38.587 45.8502 30.4635 45.8502Z" fill="white"/>
<path d="M30.4078 17.9253C38.6037 17.9253 46.8051 17.9253 55.001 17.9309C55.2349 17.9309 55.4854 17.9642 55.7026 18.0532C56.2315 18.2699 56.5433 18.8756 56.4375 19.4147C56.3206 20.0315 55.8418 20.4594 55.2349 20.4983C55.1347 20.5039 55.0289 20.5039 54.9287 20.5039C38.587 20.5039 22.2509 20.5039 5.90921 20.5039C5.72547 20.5039 5.53616 20.4983 5.35799 20.4539C4.72325 20.2983 4.32794 19.7148 4.40032 19.0812C4.47827 18.4255 4.99608 17.9476 5.64752 17.9309C5.74774 17.9309 5.85353 17.9309 5.95375 17.9309C14.1051 17.9253 22.2564 17.9253 30.4078 17.9253Z" fill="white"/>
</svg>
